Silicon.ufo
<glyph name="exclam" format="1">
  <advance width="571"/>
  <unicode hex="0021"/>
  <outline>
    <contour>
      <point x="248" y="429" type="line"/>
      <point x="314" y="429" type="line"/>
      <point x="366" y="1335" type="line"/>
      <point x="366" y="1457" type="line"/>
      <point x="190" y="1457" type="line"/>
      <point x="190" y="1335" type="line"/>
    </contour>
    <contour>
      <point x="282" y="-13" type="curve" smooth="yes"/>
      <point x="362" y="-13"/>
      <point x="397" y="45"/>
      <point x="397" y="105" type="curve" smooth="yes"/>
      <point x="397" y="162"/>
      <point x="362" y="222"/>
      <point x="282" y="222" type="curve" smooth="yes"/>
      <point x="202" y="222"/>
      <point x="167" y="162"/>
      <point x="167" y="105" type="curve" smooth="yes"/>
      <point x="167" y="47"/>
      <point x="202" y="-13"/>
    </contour>
  </outline>
</glyph>
<glyph name="quotedbl" format="1">
  <advance width="734"/>
  <unicode hex="0022"/>
  <outline>
    <contour>
      <point x="122" y="928" type="line"/>
      <point x="197" y="928" type="line"/>
      <point x="320" y="1560" type="line"/>
      <point x="122" y="1560" type="line"/>
    </contour>
    <contour>
      <point x="408" y="928" type="line"/>
      <point x="484" y="928" type="line"/>
      <point x="596" y="1560" type="line"/>
      <point x="408" y="1560" type="line"/>
    </contour>
  </outline>
</glyph>
<glyph name="asterisk" format="1">
  <advance width="897"/>
  <unicode hex="002A"/>
  <outline>
    <contour>
      <point x="260" y="599" type="line"/>
      <point x="130" y="681" type="line"/>
      <point x="361" y="991" type="line"/>
      <point x="20" y="1068" type="line"/>
      <point x="62" y="1215" type="line"/>
      <point x="398" y="1075" type="line"/>
      <point x="364" y="1456" type="line"/>
      <point x="524" y="1456" type="line"/>
      <point x="488" y="1075" type="line"/>
      <point x="826" y="1215" type="line"/>
      <point x="868" y="1068" type="line"/>
      <point x="523" y="991" type="line"/>
      <point x="561" y="940"/>
      <point x="667" y="798"/>
      <point x="760" y="681" type="curve"/>
      <point x="703" y="645"/>
      <point x="688" y="635"/>
      <point x="631" y="599" type="curve"/>
      <point x="439" y="937" type="line"/>
    </contour>
  </outline>
</glyph>
<glyph name="zero" format="1">
  <advance width="1102"/>
  <unicode hex="0030"/>
  <outline>
    <contour>
      <point x="556" y="-20" type="curve" smooth="yes"/>
      <point x="899" y="-20"/>
      <point x="1039" y="259"/>
      <point x="1039" y="703" type="curve" smooth="yes"/>
      <point x="1039" y="1170"/>
      <point x="883" y="1476"/>
      <point x="556" y="1476" type="curve" smooth="yes"/>
      <point x="229" y="1476"/>
      <point x="63" y="1169"/>
      <point x="63" y="703" type="curve" smooth="yes"/>
      <point x="63" y="259"/>
      <point x="213" y="-20"/>
    </contour>
    <contour>
      <point x="556" y="123" type="curve" smooth="yes"/>
      <point x="354" y="123"/>
      <point x="228" y="282"/>
      <point x="228" y="708" type="curve"/>
      <point x="227" y="1114"/>
      <point x="354" y="1334"/>
      <point x="556" y="1334" type="curve" smooth="yes"/>
      <point x="758" y="1334"/>
      <point x="874" y="1143"/>
      <point x="874" y="709" type="curve" smooth="yes"/>
      <point x="874" y="283"/>
      <point x="758" y="123"/>
    </contour>
  </outline>
</glyph>
<glyph name="one" format="1">
  <advance width="1102"/>
  <unicode hex="0031"/>
  <outline>
    <contour>
      <point x="167" y="0" type="line"/>
      <point x="1033" y="0" type="line"/>
      <point x="1033" y="123" type="line"/>
      <point x="654" y="123" type="line"/>
      <point x="707" y="59" type="line"/>
      <point x="707" y="1456" type="line"/>
      <point x="554" y="1456" type="line"/>
      <point x="478" y="1402"/>
      <point x="237" y="1319"/>
      <point x="154" y="1301" type="curve"/>
      <point x="154" y="1166" type="line"/>
      <point x="237" y="1177"/>
      <point x="478" y="1256"/>
      <point x="578" y="1325" type="curve"/>
      <point x="541" y="1357" type="line"/>
      <point x="541" y="67" type="line"/>
      <point x="591" y="123" type="line"/>
      <point x="167" y="123" type="line"/>
    </contour>
  </outline>
</glyph>
<glyph name="two" format="1">
  <advance width="1061"/>
  <unicode hex="0032"/>
  <outline>
    <contour>
      <point x="72.0" y="0.0" type="line"/>
      <point x="928.0" y="0.0" type="line"/>
      <point x="937.0" y="142.0" type="line"/>
      <point x="182.0" y="142.0" type="line"/>
      <point x="201.0" y="112.0" type="line"/>
      <point x="684.0" y="573.0" type="line" smooth="yes"/>
      <point x="880.0" y="761.0"/>
      <point x="956.0" y="855.0"/>
      <point x="956.0" y="1064.0" type="curve" smooth="yes"/>
      <point x="956.0" y="1375.0"/>
      <point x="707" y="1476"/>
      <point x="523.0" y="1476.0" type="curve" smooth="yes"/>
      <point x="278" y="1476"/>
      <point x="160" y="1389"/>
      <point x="86" y="1304" type="curve"/>
      <point x="167" y="1205" type="line"/>
      <point x="186" y="1205" type="line"/>
      <point x="253" y="1283"/>
      <point x="373" y="1339"/>
      <point x="530" y="1334" type="curve" smooth="yes"/>
      <point x="645" y="1331"/>
      <point x="796" y="1284"/>
      <point x="796" y="1058" type="curve" smooth="yes"/>
      <point x="796" y="890"/>
      <point x="732" y="825"/>
      <point x="586" y="682" type="curve" smooth="yes"/>
      <point x="46.0" y="151.0" type="line"/>
    </contour>
  </outline>
</glyph>
<glyph name="question" format="1">
  <advance width="775"/>
  <unicode hex="003F"/>
  <outline>
    <contour>
      <point x="307" y="-13" type="curve" smooth="yes"/>
      <point x="386" y="-13"/>
      <point x="421" y="41"/>
      <point x="421" y="101" type="curve" smooth="yes"/>
      <point x="421" y="158"/>
      <point x="386" y="214"/>
      <point x="307" y="214" type="curve" smooth="yes"/>
      <point x="228" y="214"/>
      <point x="192" y="158"/>
      <point x="192" y="101" type="curve" smooth="yes"/>
      <point x="192" y="43"/>
      <point x="228" y="-13"/>
    </contour>
    <contour>
      <point x="328" y="1343" type="curve" smooth="yes"/>
      <point x="453" y="1343"/>
      <point x="526" y="1273"/>
      <point x="526" y="1127" type="curve" smooth="yes"/>
      <point x="526" y="908"/>
      <point x="277" y="731"/>
      <point x="268" y="424" type="curve"/>
      <point x="351" y="424" type="line"/>
      <point x="450" y="788"/>
      <point x="685" y="836"/>
      <point x="685" y="1132" type="curve" smooth="yes"/>
      <point x="685" y="1380"/>
      <point x="525" y="1477"/>
      <point x="346" y="1477" type="curve" smooth="yes"/>
      <point x="222" y="1477"/>
      <point x="125" y="1437"/>
      <point x="52" y="1382" type="curve"/>
      <point x="85" y="1256" type="line"/>
      <point x="127" y="1285"/>
      <point x="222" y="1343"/>
    </contour>
  </outline>
</glyph>
<glyph name="at" format="1">
  <advance width="1795"/>
  <unicode hex="0040"/>
  <outline>
    <contour>
      <point x="877" y="-202" type="curve" smooth="yes"/>
      <point x="1068" y="-202"/>
      <point x="1261" y="-153"/>
      <point x="1389" y="-65" type="curve"/>
      <point x="1347" y="38" type="line"/>
      <point x="1212" y="-48"/>
      <point x="1044" y="-79"/>
      <point x="880" y="-79" type="curve" smooth="yes"/>
      <point x="460" y="-79"/>
      <point x="228" y="198"/>
      <point x="228" y="603" type="curve" smooth="yes"/>
      <point x="228" y="1028"/>
      <point x="502" y="1357"/>
      <point x="937" y="1357" type="curve" smooth="yes"/>
      <point x="1365" y="1357"/>
      <point x="1574" y="1092"/>
      <point x="1574" y="752" type="curve" smooth="yes"/>
      <point x="1574" y="477"/>
      <point x="1449" y="336"/>
      <point x="1332" y="336" type="curve" smooth="yes"/>
      <point x="1257" y="336"/>
      <point x="1199" y="397"/>
      <point x="1199" y="480" type="curve" smooth="yes"/>
      <point x="1199" y="606"/>
      <point x="1236" y="793"/>
      <point x="1264" y="998" type="curve"/>
      <point x="1178" y="1042"/>
      <point x="1047" y="1071"/>
      <point x="951" y="1071" type="curve" smooth="yes"/>
      <point x="667" y="1071"/>
      <point x="517" y="815"/>
      <point x="517" y="565" type="curve" smooth="yes"/>
      <point x="517" y="366"/>
      <point x="625" y="211"/>
      <point x="813" y="211" type="curve" smooth="yes"/>
      <point x="954" y="211"/>
      <point x="1046" y="321"/>
      <point x="1095" y="429" type="curve"/>
      <point x="1125" y="298"/>
      <point x="1202" y="215"/>
      <point x="1332" y="215" type="curve" smooth="yes"/>
      <point x="1503" y="215"/>
      <point x="1701" y="394"/>
      <point x="1701" y="744" type="curve" smooth="yes"/>
      <point x="1701" y="1193"/>
      <point x="1373" y="1476"/>
      <point x="944" y="1476" type="curve" smooth="yes"/>
      <point x="447" y="1476"/>
      <point x="84" y="1107"/>
      <point x="84" y="607" type="curve" smooth="yes"/>
      <point x="84" y="105"/>
      <point x="408" y="-202"/>
    </contour>
    <contour>
      <point x="830" y="326" type="curve" smooth="yes"/>
      <point x="708" y="326"/>
      <point x="658" y="420"/>
      <point x="655" y="562" type="curve" smooth="yes"/>
      <point x="650" y="794"/>
      <point x="780" y="966"/>
      <point x="967" y="966" type="curve" smooth="yes"/>
      <point x="1003" y="966"/>
      <point x="1096" y="950"/>
      <point x="1135" y="938" type="curve"/>
      <point x="1110" y="974" type="line"/>
      <point x="1062" y="688" type="line"/>
      <point x="1030" y="487"/>
      <point x="982" y="326"/>
    </contour>
  </outline>
</glyph>
<glyph name="A" format="1">
  <advance width="1265"/>
  <unicode hex="0041"/>
  <outline>
    <contour>
      <point x="-7" y="0" type="line"/>
      <point x="166" y="0" type="line"/>
      <point x="357" y="513" type="line"/>
      <point x="295" y="462" type="line"/>
      <point x="975" y="462" type="line"/>
      <point x="908" y="508" type="line"/>
      <point x="1098" y="0" type="line"/>
      <point x="1272" y="0" type="line"/>
      <point x="715" y="1456" type="line"/>
      <point x="544" y="1456" type="line"/>
    </contour>
    <contour>
      <point x="362" y="543" type="line"/>
      <point x="656" y="1350" type="line"/>
      <point x="604" y="1350" type="line"/>
      <point x="904" y="535" type="line"/>
      <point x="944" y="587" type="line"/>
      <point x="329" y="587" type="line"/>
    </contour>
    <contour>
      <point x="630" y="0" type="move" name="bot"/>
    </contour>
    <contour>
      <point x="1166" y="0" type="move" name="ogonek"/>
    </contour>
    <contour>
      <point x="628" y="1456" type="move" name="top"/>
    </contour>
  </outline>
</glyph>
<glyph name="D" format="1">
  <advance width="1351"/>
  <unicode hex="0044"/>
  <outline>
    <contour>
      <point x="312" y="85" type="line"/>
      <point x="312" y="1377" type="line"/>
      <point x="272" y="1318" type="line"/>
      <point x="903" y="1373"/>
      <point x="1088" y="1213"/>
      <point x="1088" y="739" type="curve" smooth="yes"/>
      <point x="1088" y="326"/>
      <point x="918" y="89"/>
      <point x="272" y="147" type="curve"/>
    </contour>
    <contour>
      <point x="136" y="11" type="line"/>
      <point x="1047" y="-66"/>
      <point x="1264" y="230"/>
      <point x="1264" y="744" type="curve" smooth="yes"/>
      <point x="1264" y="1251"/>
      <point x="1066" y="1541"/>
      <point x="136" y="1434" type="curve"/>
    </contour>
    <contour>
      <point x="709" y="-1" type="move" name="bot"/>
    </contour>
    <contour>
      <point x="665" y="1456" type="move" name="top"/>
    </contour>
    <contour>
      <point x="225" y="769" type="move" name="mid"/>
    </contour>
  </outline>
</glyph>
<glyph name="G" format="1">
  <advance width="1347"/>
  <unicode hex="0047"/>
  <outline>
    <contour>
      <point x="751" y="-20" type="curve" smooth="yes"/>
      <point x="947" y="-20"/>
      <point x="1072" y="14"/>
      <point x="1219" y="72" type="curve"/>
      <point x="1219" y="764" type="line"/>
      <point x="768" y="764" type="line"/>
      <point x="759" y="646" type="line"/>
      <point x="1104" y="621" type="line"/>
      <point x="1056" y="676" type="line"/>
      <point x="1056" y="108" type="line"/>
      <point x="1116" y="183" type="line"/>
      <point x="1048" y="161"/>
      <point x="961" y="123"/>
      <point x="782" y="123" type="curve" smooth="yes"/>
      <point x="397" y="123"/>
      <point x="264" y="369"/>
      <point x="264" y="738" type="curve" smooth="yes"/>
      <point x="264" y="1091"/>
      <point x="441" y="1334"/>
      <point x="783" y="1334" type="curve" smooth="yes"/>
      <point x="966" y="1334"/>
      <point x="1063" y="1260"/>
      <point x="1127" y="1194" type="curve"/>
      <point x="1143" y="1194" type="line"/>
      <point x="1223" y="1298" type="line"/>
      <point x="1136" y="1400"/>
      <point x="991" y="1476"/>
      <point x="780" y="1476" type="curve" smooth="yes"/>
      <point x="341" y="1476"/>
      <point x="87" y="1176"/>
      <point x="87" y="737" type="curve" smooth="yes"/>
      <point x="87" y="303"/>
      <point x="302" y="-20"/>
    </contour>
    <contour>
      <point x="790" y="1" type="move" name="bot"/>
    </contour>
    <contour>
      <point x="792" y="1456" type="move" name="top"/>
    </contour>
  </outline>
</glyph>
<glyph name="W" format="1">
  <advance width="1722"/>
  <unicode hex="0057"/>
  <outline>
    <contour>
      <point x="353" y="0" type="curve"/>
      <point x="520" y="0" type="line"/>
      <point x="897" y="1303" type="line"/>
      <point x="844" y="1303" type="line"/>
      <point x="1205" y="0" type="line"/>
      <point x="1376" y="0" type="line"/>
      <point x="1376" y="0"/>
      <point x="1714" y="1456"/>
      <point x="1714" y="1456" type="curve"/>
      <point x="1544" y="1456" type="line"/>
      <point x="1544" y="1456"/>
      <point x="1276" y="166"/>
      <point x="1276" y="166" type="curve"/>
      <point x="1306" y="166" type="line"/>
      <point x="953" y="1425" type="line"/>
      <point x="783" y="1425" type="line"/>
      <point x="423" y="167" type="line"/>
      <point x="462" y="167" type="line"/>
      <point x="462" y="167"/>
      <point x="167" y="1456"/>
      <point x="167" y="1456" type="curve"/>
      <point x="8" y="1456" type="line"/>
      <point x="8" y="1456"/>
      <point x="353" y="0"/>
    </contour>
    <contour>
      <point x="867" y="0" type="move" name="bot"/>
    </contour>
    <contour>
      <point x="870" y="1456" type="move" name="top"/>
    </contour>
  </outline>
</glyph>
<glyph name="Y" format="1">
  <advance width="1156"/>
  <unicode hex="0059"/>
  <outline>
    <contour>
      <point x="494" y="0" type="line"/>
      <point x="670" y="0" type="line"/>
      <point x="670" y="566" type="line"/>
      <point x="635" y="443" type="line"/>
      <point x="1179" y="1456" type="line"/>
      <point x="1005" y="1456" type="line"/>
      <point x="554" y="608" type="line"/>
      <point x="610" y="608" type="line"/>
      <point x="143" y="1456" type="line"/>
      <point x="-23" y="1456" type="line"/>
      <point x="533" y="441" type="line"/>
      <point x="494" y="568" type="line"/>
    </contour>
    <contour>
      <point x="581" y="1456" type="move" name="top"/>
    </contour>
  </outline>
</glyph>
<glyph name="backslash" format="1">
  <advance width="816"/>
  <unicode hex="005C"/>
  <outline>
    <contour>
      <point x="577" y="-20" type="line"/>
      <point x="33" y="1476" type="line"/>
      <point x="164" y="1476" type="line"/>
      <point x="707" y="-20" type="line"/>
    </contour>
  </outline>
</glyph>
<glyph name="asciicircum" format="1">
  <advance width="857"/>
  <unicode hex="005E"/>
  <unicode hex="0302"/>
  <outline>
    <contour>
      <point x="167" y="1074" type="line"/>
      <point x="278" y="1074" type="line"/>
      <point x="436" y="1355" type="line"/>
      <point x="590" y="1074" type="line"/>
      <point x="702" y="1074" type="line"/>
      <point x="534" y="1456" type="line"/>
      <point x="347" y="1456" type="line"/>
    </contour>
  </outline>
</glyph>
<glyph name="a" format="1">
  <advance width="1063"/>
  <unicode hex="0061"/>
  <outline>
    <contour>
      <point x="790" y="313" type="line"/>
      <point x="715" y="191"/>
      <point x="585" y="96"/>
      <point x="415" y="104" type="curve" smooth="yes"/>
      <point x="322" y="108"/>
      <point x="244" y="167"/>
      <point x="244" y="292" type="curve" smooth="yes"/>
      <point x="244" y="415"/>
      <point x="311" y="494"/>
      <point x="541" y="494" type="curve" smooth="yes"/>
      <point x="596" y="494"/>
      <point x="734" y="486"/>
      <point x="811" y="473" type="curve"/>
      <point x="766" y="527" type="line"/>
      <point x="766" y="239" type="line"/>
    </contour>
    <contour>
      <point x="766" y="561" type="line"/>
      <point x="810" y="588" type="line"/>
      <point x="724" y="601"/>
      <point x="586" y="607"/>
      <point x="525" y="607" type="curve" smooth="yes"/>
      <point x="206" y="607"/>
      <point x="86" y="482"/>
      <point x="86" y="293" type="curve" smooth="yes"/>
      <point x="86" y="92"/>
      <point x="216" y="-20"/>
      <point x="407" y="-20" type="curve" smooth="yes"/>
      <point x="529" y="-20"/>
      <point x="687" y="16"/>
      <point x="811" y="179" type="curve"/>
      <point x="781" y="189" type="line"/>
      <point x="804" y="0" type="line"/>
      <point x="930" y="0" type="line"/>
      <point x="930" y="717" type="line" smooth="yes"/>
      <point x="930" y="1006"/>
      <point x="759" y="1106"/>
      <point x="518" y="1106" type="curve" smooth="yes"/>
      <point x="311" y="1106"/>
      <point x="203" y="1028"/>
      <point x="132" y="921" type="curve"/>
      <point x="222" y="835" type="line"/>
      <point x="232" y="836" type="line"/>
      <point x="302" y="925"/>
      <point x="395" y="980"/>
      <point x="529" y="980" type="curve" smooth="yes"/>
      <point x="692" y="980"/>
      <point x="766" y="898"/>
      <point x="766" y="742" type="curve"/>
    </contour>
    <contour>
      <point x="532" y="1083" type="move" name="top"/>
    </contour>
    <contour>
      <point x="869" y="1" type="move" name="ogonek"/>
    </contour>
    <contour>
      <point x="455" y="1" type="move" name="bot"/>
    </contour>
  </outline>
</glyph>
<glyph name="b" format="1">
  <advance width="1144"/>
  <unicode hex="0062"/>
  <outline>
    <contour>
      <point x="570" y="108" type="curve" smooth="yes"/>
      <point x="431" y="108"/>
      <point x="344" y="173"/>
      <point x="293" y="248" type="curve"/>
      <point x="293" y="519" type="line" smooth="yes"/>
      <point x="293" y="814"/>
      <point x="394" y="980"/>
      <point x="608" y="980" type="curve" smooth="yes"/>
      <point x="811" y="980"/>
      <point x="888" y="799"/>
      <point x="888" y="542" type="curve" smooth="yes"/>
      <point x="888" y="275"/>
      <point x="782" y="108"/>
    </contour>
    <contour>
      <point x="594" y="-20" type="curve" smooth="yes"/>
      <point x="889" y="-20"/>
      <point x="1057" y="204"/>
      <point x="1057" y="542" type="curve" smooth="yes"/>
      <point x="1057" y="880"/>
      <point x="895" y="1118"/>
      <point x="608" y="1106" type="curve" smooth="yes"/>
      <point x="496" y="1101"/>
      <point x="329" y="1056"/>
      <point x="273" y="826" type="curve"/>
      <point x="294" y="824" type="line"/>
      <point x="300" y="1105" type="line"/>
      <point x="300" y="1560" type="line"/>
      <point x="136" y="1548" type="line"/>
      <point x="136" y="0" type="line"/>
      <point x="267" y="0" type="line"/>
      <point x="287" y="200" type="line"/>
      <point x="228" y="193" type="line"/>
      <point x="281" y="51"/>
      <point x="409" y="-20"/>
    </contour>
  </outline>
</glyph>
<glyph name="d" format="1">
  <advance width="1152"/>
  <unicode hex="0064"/>
  <outline>
    <contour>
      <point x="1009" y="1559" type="line"/>
      <point x="845" y="1547" type="line"/>
      <point x="845" y="1154" type="line"/>
      <point x="853" y="876" type="line"/>
      <point x="922" y="884" type="line"/>
      <point x="869" y="1020"/>
      <point x="743" y="1106"/>
      <point x="552" y="1106" type="curve" smooth="yes"/>
      <point x="269" y="1106"/>
      <point x="87" y="882"/>
      <point x="87" y="547" type="curve" smooth="yes"/>
      <point x="87" y="208"/>
      <point x="234" y="-20"/>
      <point x="527" y="-20" type="curve" smooth="yes"/>
      <point x="698" y="-20"/>
      <point x="814" y="65"/>
      <point x="867" y="234" type="curve"/>
      <point x="852" y="239" type="line"/>
      <point x="873" y="0" type="line"/>
      <point x="1009" y="0" type="line"/>
    </contour>
    <contour>
      <point x="568" y="980" type="curve" smooth="yes"/>
      <point x="688" y="982"/>
      <point x="776" y="945"/>
      <point x="845" y="849" type="curve"/>
      <point x="845" y="563" type="line" smooth="yes"/>
      <point x="845" y="293"/>
      <point x="768" y="106"/>
      <point x="541" y="106" type="curve" smooth="yes"/>
      <point x="331" y="106"/>
      <point x="257" y="286"/>
      <point x="257" y="545" type="curve" smooth="yes"/>
      <point x="257" y="805"/>
      <point x="360" y="977"/>
    </contour>
    <contour>
      <point x="921" y="1334" type="move" name="mid"/>
    </contour>
  </outline>
</glyph>
<glyph name="f" format="1">
  <advance width="724"/>
  <unicode hex="0066"/>
  <outline>
    <contour>
      <point x="269" y="0" type="line"/>
      <point x="433" y="0" type="line"/>
      <point x="433" y="1020" type="line"/>
      <point x="401" y="980" type="line"/>
      <point x="708" y="980" type="line"/>
      <point x="708" y="1082" type="line"/>
      <point x="397" y="1082" type="line"/>
      <point x="433" y="1045" type="line"/>
      <point x="433" y="1162" type="line" smooth="yes"/>
      <point x="433" y="1351"/>
      <point x="465" y="1393"/>
      <point x="610" y="1393" type="curve" smooth="yes"/>
      <point x="645" y="1393"/>
      <point x="712" y="1386"/>
      <point x="712" y="1386" type="curve"/>
      <point x="724" y="1501" type="line"/>
      <point x="724" y="1501"/>
      <point x="660" y="1516"/>
      <point x="586" y="1517" type="curve" smooth="yes"/>
      <point x="381" y="1520"/>
      <point x="269" y="1468"/>
      <point x="269" y="1162" type="curve" smooth="yes"/>
      <point x="269" y="1047" type="line"/>
      <point x="309" y="1082" type="line"/>
      <point x="80" y="1066" type="line"/>
      <point x="75" y="980" type="line"/>
      <point x="309" y="980" type="line"/>
      <point x="269" y="1019" type="line"/>
    </contour>
  </outline>
</glyph>
<glyph name="g" format="1">
  <advance width="1139"/>
  <unicode hex="0067"/>
  <outline>
    <contour>
      <point x="562" y="980" type="curve" smooth="yes"/>
      <point x="682" y="980"/>
      <point x="779" y="936"/>
      <point x="848" y="840" type="curve"/>
      <point x="848" y="228" type="line"/>
      <point x="789" y="147"/>
      <point x="683" y="106"/>
      <point x="564" y="106" type="curve" smooth="yes"/>
      <point x="350" y="106"/>
      <point x="253" y="272"/>
      <point x="253" y="545" type="curve" smooth="yes"/>
      <point x="253" y="809"/>
      <point x="352" y="980"/>
    </contour>
    <contour>
      <point x="918" y="198" type="curve"/>
      <point x="849" y="203" type="line"/>
      <point x="849" y="10" type="line" smooth="yes"/>
      <point x="849" y="-268"/>
      <point x="736" y="-351"/>
      <point x="528" y="-351" type="curve" smooth="yes"/>
      <point x="434" y="-351"/>
      <point x="320" y="-330"/>
      <point x="238" y="-294" type="curve"/>
      <point x="216" y="-294" type="line"/>
      <point x="202" y="-427" type="line"/>
      <point x="283" y="-458"/>
      <point x="403" y="-484"/>
      <point x="524" y="-484" type="curve" smooth="yes"/>
      <point x="882" y="-484"/>
      <point x="1005" y="-305"/>
      <point x="1005" y="58" type="curve" smooth="yes"/>
      <point x="1005.0" y="1082.0" type="line"/>
      <point x="869.0" y="1082.0" type="line"/>
      <point x="854" y="885" type="line"/>
      <point x="913" y="885" type="line"/>
      <point x="861" y="1003"/>
      <point x="743" y="1106"/>
      <point x="558" y="1106" type="curve" smooth="yes"/>
      <point x="263" y="1106"/>
      <point x="84" y="882"/>
      <point x="84" y="544" type="curve" smooth="yes"/>
      <point x="84" y="206"/>
      <point x="250" y="-22"/>
      <point x="560" y="-20" type="curve" smooth="yes"/>
      <point x="672" y="-19"/>
      <point x="844" y="17"/>
    </contour>
    <contour>
      <point x="543" y="1082" type="move" name="top"/>
    </contour>
    <contour>
      <point x="523" y="-475.9" type="move" name="bot"/>
    </contour>
  </outline>
</glyph>
<glyph name="i" format="1">
  <advance width="484"/>
  <unicode hex="0069"/>
  <outline>
    <contour>
      <point x="251" y="1496" type="curve" smooth="yes"/>
      <point x="319" y="1496"/>
      <point x="346" y="1458"/>
      <point x="346" y="1392" type="curve" smooth="yes"/>
      <point x="346" y="1324"/>
      <point x="319" y="1285"/>
      <point x="251" y="1285" type="curve" smooth="yes"/>
      <point x="181" y="1285"/>
      <point x="155" y="1324"/>
      <point x="155" y="1392" type="curve" smooth="yes"/>
      <point x="155" y="1458"/>
      <point x="181" y="1496"/>
    </contour>
    <contour>
      <point x="172" y="0" type="line"/>
      <point x="336" y="0" type="line"/>
      <point x="336" y="1082" type="line"/>
      <point x="172" y="1082" type="line"/>
    </contour>
    <contour>
      <point x="254" y="0" type="move" name="bot"/>
    </contour>
  </outline>
</glyph>
<glyph name="j" format="1">
  <advance width="538"/>
  <unicode hex="006A"/>
  <outline>
    <contour>
      <point x="108" y="-362" type="line" smooth="yes"/>
      <point x="312" y="-296"/>
      <point x="385" y="-261"/>
      <point x="385" y="-5" type="curve" smooth="yes"/>
      <point x="385" y="-5"/>
      <point x="221" y="-5"/>
      <point x="221" y="-5" type="curve" smooth="yes"/>
      <point x="221" y="-162"/>
      <point x="196" y="-179"/>
      <point x="99" y="-219" type="curve" smooth="yes"/>
      <point x="-14" y="-265" type="line"/>
      <point x="34" y="-386" type="line"/>
    </contour>
    <contour>
      <point x="307" y="1496" type="curve" smooth="yes"/>
      <point x="375" y="1496"/>
      <point x="402" y="1458"/>
      <point x="402" y="1392" type="curve" smooth="yes"/>
      <point x="402" y="1324"/>
      <point x="375" y="1285"/>
      <point x="307" y="1285" type="curve" smooth="yes"/>
      <point x="237" y="1285"/>
      <point x="211" y="1324"/>
      <point x="211" y="1392" type="curve" smooth="yes"/>
      <point x="211" y="1458"/>
      <point x="237" y="1496"/>
    </contour>
    <contour>
      <point x="385" y="-6" type="line"/>
      <point x="385" y="1082" type="line"/>
      <point x="221" y="1082" type="line"/>
      <point x="221" y="-6" type="line"/>
    </contour>
  </outline>
</glyph>
<glyph name="m" format="1">
  <advance width="1768"/>
  <unicode hex="006D"/>
  <outline>
    <contour>
      <point x="133" y="0" type="line"/>
      <point x="297" y="0" type="line"/>
      <point x="297" y="639" type="line"/>
      <point x="323" y="830"/>
      <point x="422" y="980"/>
      <point x="592" y="980" type="curve" smooth="yes"/>
      <point x="744" y="980"/>
      <point x="803" y="864"/>
      <point x="803" y="609" type="curve" smooth="yes"/>
      <point x="803" y="0" type="line"/>
      <point x="967" y="0" type="line"/>
      <point x="967" y="593" type="line" smooth="yes"/>
      <point x="967" y="849"/>
      <point x="1134" y="980"/>
      <point x="1268" y="980" type="curve" smooth="yes"/>
      <point x="1447" y="980"/>
      <point x="1473" y="801"/>
      <point x="1473" y="646" type="curve" smooth="yes"/>
      <point x="1473" y="0" type="line"/>
      <point x="1637" y="0" type="line"/>
      <point x="1637" y="699" type="line" smooth="yes"/>
      <point x="1637" y="965"/>
      <point x="1514" y="1106"/>
      <point x="1294" y="1106" type="curve" smooth="yes"/>
      <point x="1131" y="1106"/>
      <point x="988" y="1018"/>
      <point x="919" y="802" type="curve"/>
      <point x="942" y="808" type="line"/>
      <point x="912" y="986"/>
      <point x="801" y="1106"/>
      <point x="619" y="1106" type="curve" smooth="yes"/>
      <point x="473" y="1106"/>
      <point x="341" y="1030"/>
      <point x="276" y="833" type="curve"/>
      <point x="291" y="826" type="line"/>
      <point x="269" y="1082" type="line"/>
      <point x="133" y="1082" type="line"/>
    </contour>
    <contour>
      <point x="913" y="1082" type="move" name="top"/>
    </contour>
  </outline>
</glyph>
<glyph name="n" format="1">
  <advance width="1138"/>
  <unicode hex="006E"/>
  <outline>
    <contour>
      <point x="132" y="0" type="line"/>
      <point x="296" y="0" type="line"/>
      <point x="296" y="611" type="line" smooth="yes"/>
      <point x="296" y="808"/>
      <point x="391" y="980"/>
      <point x="627" y="980" type="curve" smooth="yes"/>
      <point x="797" y="980"/>
      <point x="846" y="851"/>
      <point x="846" y="669" type="curve" smooth="yes"/>
      <point x="846" y="0" type="line"/>
      <point x="1010" y="0" type="line"/>
      <point x="1010" y="650" type="line" smooth="yes"/>
      <point x="1010" y="945"/>
      <point x="900" y="1106"/>
      <point x="656" y="1106" type="curve" smooth="yes"/>
      <point x="473" y="1106"/>
      <point x="337" y="1032"/>
      <point x="274" y="833" type="curve"/>
      <point x="290" y="826" type="line"/>
      <point x="268" y="1082" type="line"/>
      <point x="132" y="1082" type="line"/>
    </contour>
    <contour>
      <point x="660" y="1082" type="move" name="top"/>
    </contour>
    <contour>
      <point x="566" y="0" type="move" name="bot"/>
    </contour>
    <contour>
      <point x="102" y="1084" type="move" name="mid"/>
    </contour>
  </outline>
</glyph>
<glyph name="p" format="1">
  <advance width="1142"/>
  <unicode hex="0070"/>
  <outline>
    <contour>
      <point x="133" y="-456" type="line"/>
      <point x="297" y="-456" type="line"/>
      <point x="297" y="-68" type="line"/>
      <point x="289" y="206" type="line"/>
      <point x="220" y="198" type="line"/>
      <point x="273" y="62"/>
      <point x="404" y="-20"/>
      <point x="595" y="-20" type="curve" smooth="yes"/>
      <point x="878" y="-20"/>
      <point x="1055" y="210"/>
      <point x="1055" y="539" type="curve" smooth="yes"/>
      <point x="1055" y="878"/>
      <point x="919" y="1106"/>
      <point x="626" y="1106" type="curve" smooth="yes"/>
      <point x="455" y="1106"/>
      <point x="322" y="1016"/>
      <point x="275" y="816" type="curve"/>
      <point x="290" y="811" type="line"/>
      <point x="269" y="1082" type="line"/>
      <point x="133" y="1082" type="line"/>
    </contour>
    <contour>
      <point x="587" y="106" type="curve" smooth="yes"/>
      <point x="467" y="106"/>
      <point x="359" y="150"/>
      <point x="290" y="246" type="curve"/>
      <point x="290" y="558" type="line" smooth="yes"/>
      <point x="290" y="808"/>
      <point x="380" y="980"/>
      <point x="607" y="980" type="curve" smooth="yes"/>
      <point x="821" y="980"/>
      <point x="885" y="791"/>
      <point x="885" y="541" type="curve" smooth="yes"/>
      <point x="885" y="277"/>
      <point x="797" y="106"/>
    </contour>
    <contour>
      <point x="631" y="1082" type="move" name="top"/>
    </contour>
  </outline>
</glyph>
<glyph name="q" format="1">
  <advance width="1136"/>
  <unicode hex="0071"/>
  <outline>
    <contour>
      <point x="824" y="-456" type="line"/>
      <point x="988" y="-456" type="line"/>
      <point x="988" y="1082" type="line"/>
      <point x="852" y="1082" type="line"/>
      <point x="833" y="841" type="line"/>
      <point x="855" y="854" type="line"/>
      <point x="787" y="1006"/>
      <point x="692" y="1106"/>
      <point x="511" y="1106" type="curve" smooth="yes"/>
      <point x="218" y="1106"/>
      <point x="84" y="878"/>
      <point x="84" y="539" type="curve" smooth="yes"/>
      <point x="84" y="210"/>
      <point x="231" y="-20"/>
      <point x="514" y="-20" type="curve" smooth="yes"/>
      <point x="707" y="-20"/>
      <point x="803" y="112"/>
      <point x="851" y="259" type="curve"/>
      <point x="834" y="268" type="line"/>
      <point x="824" y="-68" type="line"/>
    </contour>
    <contour>
      <point x="540" y="106" type="curve" smooth="yes"/>
      <point x="330" y="106"/>
      <point x="254" y="277"/>
      <point x="254" y="541" type="curve" smooth="yes"/>
      <point x="254" y="791"/>
      <point x="316" y="980"/>
      <point x="530" y="980" type="curve" smooth="yes"/>
      <point x="757" y="980"/>
      <point x="830" y="818"/>
      <point x="831" y="558" type="curve"/>
      <point x="831" y="275"/>
      <point x="741" y="106"/>
    </contour>
  </outline>
</glyph>
<glyph name="t" format="1">
  <advance width="752"/>
  <unicode hex="0074"/>
  <outline>
    <contour>
      <point x="564" y="-8" type="curve" smooth="yes"/>
      <point x="643" y="-8" type="line"/>
      <point x="651" y="109" type="line"/>
      <point x="557" y="113" type="line" smooth="yes"/>
      <point x="392" y="120"/>
      <point x="387" y="150"/>
      <point x="387" y="325" type="curve" smooth="yes"/>
      <point x="387" y="1020" type="line"/>
      <point x="354" y="980" type="line"/>
      <point x="666" y="980" type="line"/>
      <point x="666" y="1082" type="line"/>
      <point x="354" y="1082" type="line"/>
      <point x="387" y="1046" type="line"/>
      <point x="387" y="1382" type="line"/>
      <point x="254" y="1372" type="line"/>
      <point x="224" y="1051" type="line"/>
      <point x="257" y="1082" type="line"/>
      <point x="55" y="1073" type="line"/>
      <point x="51" y="980" type="line"/>
      <point x="253" y="980" type="line"/>
      <point x="223" y="1019" type="line"/>
      <point x="223" y="325" type="line" smooth="yes"/>
      <point x="223" y="69"/>
      <point x="265" y="-8"/>
    </contour>
    <contour>
      <point x="460" y="0" type="move" name="bot"/>
    </contour>
    <contour>
      <point x="299" y="632" type="move" name="mid"/>
    </contour>
    <contour>
      <point x="313" y="1384" type="move" name="top"/>
    </contour>
  </outline>
</glyph>
<glyph name="u" format="1">
  <advance width="1141"/>
  <unicode hex="0075"/>
  <outline>
    <contour>
      <point x="1009" y="1082" type="line"/>
      <point x="845" y="1082" type="line"/>
      <point x="845" y="475" type="line" smooth="yes"/>
      <point x="845" y="268"/>
      <point x="765" y="106"/>
      <point x="528" y="106" type="curve" smooth="yes"/>
      <point x="358" y="106"/>
      <point x="292" y="221"/>
      <point x="292" y="403" type="curve" smooth="yes"/>
      <point x="292" y="1082" type="line"/>
      <point x="128" y="1082" type="line"/>
      <point x="128" y="422" type="line" smooth="yes"/>
      <point x="128" y="127"/>
      <point x="264" y="-20"/>
      <point x="508" y="-20" type="curve" smooth="yes"/>
      <point x="721" y="-20"/>
      <point x="803" y="76"/>
      <point x="870" y="206" type="curve"/>
      <point x="845" y="217" type="line"/>
      <point x="867" y="0" type="line"/>
      <point x="1009" y="0" type="line"/>
    </contour>
    <contour>
      <point x="933" y="1" type="move" name="ogonek"/>
    </contour>
    <contour>
      <point x="534" y="1" type="move" name="bot"/>
    </contour>
    <contour>
      <point x="591" y="1083" type="move" name="top"/>
    </contour>
  </outline>
</glyph>
<glyph name="z" format="1">
  <advance width="942"/>
  <unicode hex="007A"/>
  <outline>
    <contour>
      <point x="74" y="0" type="line"/>
      <point x="866" y="0" type="line"/>
      <point x="858" y="127" type="line"/>
      <point x="205" y="127" type="line"/>
      <point x="228" y="89" type="line"/>
      <point x="857" y="966" type="line"/>
      <point x="857" y="1082" type="line"/>
      <point x="95" y="1082" type="line"/>
      <point x="101" y="960" type="line"/>
      <point x="725" y="960" type="line"/>
      <point x="712" y="997" type="line"/>
      <point x="74" y="110" type="line"/>
    </contour>
    <contour>
      <point x="448" y="0" type="move" name="bot"/>
    </contour>
    <contour>
      <point x="483" y="1082" type="move" name="top"/>
    </contour>
  </outline>
</glyph>
<glyph name="braceright" format="1">
  <advance width="734"/>
  <unicode hex="007D"/>
  <outline>
    <contour>
      <point x="617" y="538" type="curve"/>
      <point x="417" y="538"/>
      <point x="418" y="474"/>
      <point x="418" y="248" type="curve" smooth="yes"/>
      <point x="418" y="91" type="line" smooth="yes"/>
      <point x="418" y="-203"/>
      <point x="388" y="-256"/>
      <point x="84" y="-256" type="curve"/>
      <point x="84" y="-135" type="line"/>
      <point x="236" y="-135"/>
      <point x="242" y="-104"/>
      <point x="242" y="104" type="curve" smooth="yes"/>
      <point x="242" y="334" type="line" smooth="yes"/>
      <point x="242" y="512"/>
      <point x="288" y="583"/>
      <point x="440" y="609" type="curve"/>
      <point x="288" y="635"/>
      <point x="242" y="706"/>
      <point x="242" y="884" type="curve" smooth="yes"/>
      <point x="242" y="1116" type="line" smooth="yes"/>
      <point x="242" y="1324"/>
      <point x="236" y="1355"/>
      <point x="84" y="1355" type="curve"/>
      <point x="84" y="1476" type="line"/>
      <point x="388" y="1476"/>
      <point x="418" y="1423"/>
      <point x="418" y="1129" type="curve" smooth="yes"/>
      <point x="418" y="970" type="line" smooth="yes"/>
      <point x="418" y="744"/>
      <point x="420" y="680"/>
      <point x="617" y="680" type="curve"/>
      <point x="617" y="680"/>
      <point x="617" y="538"/>
    </contour>
  </outline>
</glyph>
<glyph name="yen" format="1">
  <advance width="1156"/>
  <unicode hex="00A5"/>
  <outline>
    <contour>
      <point x="980" y="421" type="line"/>
      <point x="980" y="528" type="line"/>
      <point x="617" y="528" type="line"/>
      <point x="737" y="719" type="line"/>
      <point x="1019" y="719" type="line"/>
      <point x="1019" y="826" type="line"/>
      <point x="756" y="826" type="line"/>
      <point x="584" y="552" type="line"/>
      <point x="417" y="826" type="line"/>
      <point x="133" y="826" type="line"/>
      <point x="133" y="719" type="line"/>
      <point x="433" y="719" type="line"/>
      <point x="553" y="528" type="line"/>
      <point x="171" y="528" type="line"/>
      <point x="171" y="421" type="line"/>
    </contour>
    <component base="Y"/>
  </outline>
</glyph>
<glyph name="section" format="1">
  <advance width="938"/>
  <unicode hex="00A7"/>
  <outline>
    <contour>
      <point x="256" y="1191" type="curve" smooth="yes"/>
      <point x="256" y="1288"/>
      <point x="309" y="1349"/>
      <point x="470" y="1349" type="curve" smooth="yes"/>
      <point x="581" y="1349"/>
      <point x="678" y="1309"/>
      <point x="737" y="1280" type="curve"/>
      <point x="776" y="1402" type="line"/>
      <point x="685" y="1447"/>
      <point x="579" y="1476"/>
      <point x="453" y="1476" type="curve" smooth="yes"/>
      <point x="226" y="1476"/>
      <point x="103" y="1356"/>
      <point x="103" y="1188" type="curve" smooth="yes"/>
      <point x="103" y="1108"/>
      <point x="122" y="1043"/>
      <point x="187" y="990" type="curve"/>
      <point x="132" y="940"/>
      <point x="103" y="869"/>
      <point x="103" y="789" type="curve" smooth="yes"/>
      <point x="103" y="660"/>
      <point x="151" y="573"/>
      <point x="352" y="509" type="curve" smooth="yes"/>
      <point x="468" y="472" type="line" smooth="yes"/>
      <point x="627" y="421"/>
      <point x="671" y="369"/>
      <point x="671" y="290" type="curve" smooth="yes"/>
      <point x="671" y="170"/>
      <point x="596" y="105"/>
      <point x="469" y="105" type="curve" smooth="yes"/>
      <point x="353" y="105"/>
      <point x="249" y="137"/>
      <point x="126" y="196" type="curve"/>
      <point x="126" y="58" type="line"/>
      <point x="229" y="9"/>
      <point x="347" y="-20"/>
      <point x="457" y="-20" type="curve" smooth="yes"/>
      <point x="651" y="-20"/>
      <point x="818" y="69"/>
      <point x="818" y="287" type="curve" smooth="yes"/>
      <point x="818" y="375"/>
      <point x="802" y="438"/>
      <point x="751" y="490" type="curve"/>
      <point x="793" y="538"/>
      <point x="818" y="603"/>
      <point x="818" y="687" type="curve" smooth="yes"/>
      <point x="818" y="849"/>
      <point x="765" y="930"/>
      <point x="528" y="1004" type="curve" smooth="yes"/>
      <point x="423" y="1037" type="line" smooth="yes"/>
      <point x="287" y="1079"/>
      <point x="256" y="1105"/>
    </contour>
    <contour>
      <point x="321" y="920" type="curve"/>
      <point x="331" y="915"/>
      <point x="341" y="911"/>
      <point x="352" y="908" type="curve" smooth="yes"/>
      <point x="468" y="871" type="line" smooth="yes"/>
      <point x="627" y="821"/>
      <point x="671" y="768"/>
      <point x="671" y="690" type="curve" smooth="yes"/>
      <point x="671" y="638"/>
      <point x="657" y="595"/>
      <point x="631" y="566" type="curve"/>
      <point x="601" y="579"/>
      <point x="567" y="591"/>
      <point x="528" y="604" type="curve" smooth="yes"/>
      <point x="423" y="636" type="line" smooth="yes"/>
      <point x="287" y="680"/>
      <point x="256" y="705"/>
      <point x="256" y="792" type="curve" smooth="yes"/>
      <point x="256" y="850"/>
      <point x="273" y="892"/>
    </contour>
  </outline>
</glyph>
<glyph name="uni00B2" format="1">
  <advance width="775"/>
  <unicode hex="00B2"/>
  <outline>
    <contour>
      <point x="646" y="649" type="line"/>
      <point x="131" y="649" type="line"/>
      <point x="131" y="741" type="line"/>
      <point x="371" y="988"/>
      <point x="545" y="1144"/>
      <point x="545" y="1269" type="curve" smooth="yes"/>
      <point x="545" y="1378"/>
      <point x="477" y="1425"/>
      <point x="400" y="1425" type="curve" smooth="yes"/>
      <point x="318" y="1425"/>
      <point x="238" y="1388"/>
      <point x="174" y="1300" type="curve"/>
      <point x="103" y="1360" type="line"/>
      <point x="154" y="1459"/>
      <point x="275" y="1525"/>
      <point x="388" y="1525" type="curve" smooth="yes"/>
      <point x="543" y="1525"/>
      <point x="657" y="1441"/>
      <point x="657" y="1278" type="curve" smooth="yes"/>
      <point x="657" y="1085"/>
      <point x="486" y="947"/>
      <point x="274" y="748" type="curve"/>
      <point x="646" y="748" type="line"/>
    </contour>
  </outline>
</glyph>
<glyph name="cedilla" format="1">
  <advance width="652"/>
  <unicode hex="00B8"/>
  <outline>
    <contour>
      <point x="219" y="-264" type="line"/>
      <point x="345" y="-311"/>
      <point x="437.589990213" y="-282.317615001"/>
      <point x="444" y="-207" type="curve" smooth="yes"/>
      <point x="449" y="-151"/>
      <point x="400" y="-125"/>
      <point x="320" y="-134" type="curve"/>
      <point x="320" y="-60" type="line"/>
      <point x="437" y="-16"/>
      <point x="584.0" y="-56.4468085106"/>
      <point x="584" y="-199" type="curve" smooth="yes"/>
      <point x="584" y="-312"/>
      <point x="481" y="-387"/>
      <point x="336" y="-387" type="curve" smooth="yes"/>
      <point x="281" y="-387" name="inserted"/>
      <point x="232" y="-376"/>
      <point x="189" y="-356" type="curve"/>
    </contour>
    <contour>
      <point x="419" y="11.4" type="move" name="_bot"/>
    </contour>
  </outline>
</glyph>
<glyph name="threequarters" format="1">
  <advance width="1346"/>
  <unicode hex="00BE"/>
  <outline>
    <contour>
      <point x="91" y="0.0" type="line"/>
      <point x="223" y="0.0" type="line"/>
      <point x="1130" y="1476.0" type="line"/>
      <point x="999" y="1476.0" type="line"/>
    </contour>
    <contour>
      <point x="1078" y="0.0" type="line"/>
      <point x="1205" y="0.0" type="line"/>
      <point x="1205" y="191.0" type="line"/>
      <point x="1327" y="191.0" type="line"/>
      <point x="1319" y="297.0" type="line"/>
      <point x="1206" y="297.0" type="line"/>
      <point x="1206" y="857.0" type="line"/>
      <point x="1068" y="857.0" type="line"/>
      <point x="673" y="284.0" type="line"/>
      <point x="673" y="191.0" type="line"/>
      <point x="1078" y="191.0" type="line"/>
    </contour>
    <contour>
      <point x="812" y="297.0" type="line"/>
      <point x="1077" y="690.0" type="line"/>
      <point x="1077" y="297.0" type="line"/>
    </contour>
    <contour>
      <point x="127" y="684" type="curve" smooth="yes"/>
      <point x="260" y="684"/>
      <point x="366" y="772"/>
      <point x="366" y="917" type="curve" smooth="yes"/>
      <point x="366" y="1006"/>
      <point x="312" y="1078"/>
      <point x="217" y="1107" type="curve"/>
      <point x="313" y="1130"/>
      <point x="348" y="1209"/>
      <point x="348" y="1266" type="curve" smooth="yes"/>
      <point x="348" y="1407"/>
      <point x="237" y="1477"/>
      <point x="123" y="1477" type="curve" smooth="yes"/>
      <point x="43" y="1477"/>
      <point x="-55" y="1445"/>
      <point x="-106" y="1389" type="curve"/>
      <point x="-56" y="1309" type="line"/>
      <point x="-21" y="1346"/>
      <point x="57" y="1373"/>
      <point x="118" y="1373" type="curve" smooth="yes"/>
      <point x="182" y="1373"/>
      <point x="228" y="1338"/>
      <point x="228" y="1264" type="curve" smooth="yes"/>
      <point x="228" y="1189"/>
      <point x="158" y="1151"/>
      <point x="66" y="1151" type="curve" smooth="yes"/>
      <point x="2" y="1151" type="line"/>
      <point x="2" y="1047" type="line"/>
      <point x="69" y="1047" type="line" smooth="yes"/>
      <point x="170" y="1047"/>
      <point x="246" y="1005"/>
      <point x="246" y="921" type="curve" smooth="yes"/>
      <point x="246" y="830"/>
      <point x="188" y="789"/>
      <point x="116" y="789" type="curve" smooth="yes"/>
      <point x="60" y="789"/>
      <point x="-16" y="813"/>
      <point x="-59" y="853" type="curve"/>
      <point x="-104" y="765" type="line"/>
      <point x="-49" y="708"/>
      <point x="52" y="684"/>
    </contour>
  </outline>
</glyph>
<glyph name="Thorn" format="1">
  <advance width="1061"/>
  <unicode hex="00DE"/>
  <outline>
    <contour>
      <point x="128" y="0" type="line"/>
      <point x="304" y="0" type="line"/>
      <point x="304" y="462" type="line"/>
      <point x="491" y="462" type="line" smooth="yes"/>
      <point x="829" y="462"/>
      <point x="953" y="588"/>
      <point x="953" y="835" type="curve" smooth="yes"/>
      <point x="953" y="1093"/>
      <point x="765" y="1170"/>
      <point x="494" y="1170" type="curve" smooth="yes"/>
      <point x="304" y="1170" type="line"/>
      <point x="304" y="1496" type="line"/>
      <point x="128" y="1496" type="line"/>
    </contour>
    <contour>
      <point x="304" y="1041" type="line"/>
      <point x="493" y="1041" type="line" smooth="yes"/>
      <point x="673" y="1041"/>
      <point x="777" y="1001"/>
      <point x="777" y="833" type="curve" smooth="yes"/>
      <point x="777" y="646"/>
      <point x="704" y="593"/>
      <point x="487" y="593" type="curve" smooth="yes"/>
      <point x="304" y="593" type="line"/>
    </contour>
  </outline>
</glyph>
<glyph name="germandbls" format="1">
  <advance width="1224"/>
  <unicode hex="00DF"/>
  <outline>
    <contour>
      <point x="305" y="1" type="line"/>
      <point x="141" y="1" type="line"/>
      <point x="141" y="1088" type="line" smooth="yes"/>
      <point x="141" y="1382"/>
      <point x="293" y="1560"/>
      <point x="590" y="1560" type="curve" smooth="yes"/>
      <point x="814" y="1560"/>
      <point x="957" y="1433"/>
      <point x="957" y="1244" type="curve" smooth="yes"/>
      <point x="957" y="1029"/>
      <point x="748" y="917"/>
      <point x="748" y="824" type="curve" smooth="yes"/>
      <point x="748" y="705"/>
      <point x="1140" y="592"/>
      <point x="1140" y="294" type="curve" smooth="yes"/>
      <point x="1140" y="102"/>
      <point x="1018" y="-20"/>
      <point x="818" y="-20" type="curve" smooth="yes"/>
      <point x="692" y="-20"/>
      <point x="553" y="18"/>
      <point x="475" y="58" type="curve"/>
      <point x="519" y="183" type="line"/>
      <point x="575" y="153"/>
      <point x="688" y="114"/>
      <point x="799" y="114" type="curve" smooth="yes"/>
      <point x="927" y="114"/>
      <point x="980" y="199"/>
      <point x="980" y="291" type="curve" smooth="yes"/>
      <point x="980" y="506"/>
      <point x="596" y="611"/>
      <point x="596" y="809" type="curve" smooth="yes"/>
      <point x="596" y="977"/>
      <point x="800" y="1037"/>
      <point x="800" y="1245" type="curve" smooth="yes"/>
      <point x="800" y="1354"/>
      <point x="732" y="1429"/>
      <point x="595" y="1429" type="curve" smooth="yes"/>
      <point x="408" y="1429"/>
      <point x="305" y="1336"/>
      <point x="305" y="1092" type="curve" smooth="yes"/>
    </contour>
  </outline>
</glyph>
<glyph name="ae" format="1">
  <advance width="1550"/>
  <unicode hex="00E6"/>
  <outline>
    <contour>
      <point x="343" y="-20" type="curve"/>
      <point x="614" y="-20"/>
      <point x="725" y="152"/>
      <point x="759" y="254" type="curve"/>
      <point x="801" y="147"/>
      <point x="894" y="-20"/>
      <point x="1169" y="-20" type="curve" smooth="yes"/>
      <point x="1328" y="-20"/>
      <point x="1436" y="17"/>
      <point x="1530" y="75" type="curve"/>
      <point x="1495" y="195" type="line"/>
      <point x="1391" y="139"/>
      <point x="1307" y="109"/>
      <point x="1178" y="109" type="curve" smooth="yes"/>
      <point x="981" y="109"/>
      <point x="851" y="222"/>
      <point x="841" y="508" type="curve"/>
      <point x="1389" y="508"/>
      <point x="1537" y="594"/>
      <point x="1537" y="801" type="curve" smooth="yes"/>
      <point x="1537" y="955"/>
      <point x="1424" y="1106"/>
      <point x="1163" y="1106" type="curve" smooth="yes"/>
      <point x="1020" y="1106"/>
      <point x="845" y="1023"/>
      <point x="794" y="855" type="curve"/>
      <point x="761" y="1036"/>
      <point x="625" y="1106"/>
      <point x="443" y="1106" type="curve" smooth="yes"/>
      <point x="321" y="1106"/>
      <point x="195" y="1083"/>
      <point x="81" y="1029" type="curve"/>
      <point x="126" y="904" type="line"/>
      <point x="226" y="954"/>
      <point x="342" y="980"/>
      <point x="446" y="980" type="curve" smooth="yes"/>
      <point x="609" y="980"/>
      <point x="677" y="898"/>
      <point x="677" y="742" type="curve" smooth="yes"/>
      <point x="677" y="593" type="line"/>
      <point x="599" y="603"/>
      <point x="529" y="607"/>
      <point x="467" y="607" type="curve" smooth="yes"/>
      <point x="148" y="607"/>
      <point x="27" y="482"/>
      <point x="27" y="293" type="curve" smooth="yes"/>
      <point x="27" y="92"/>
      <point x="152" y="-20"/>
    </contour>
    <contour>
      <point x="351" y="104" type="curve" smooth="yes"/>
      <point x="258" y="104"/>
      <point x="185" y="167"/>
      <point x="185" y="292" type="curve" smooth="yes"/>
      <point x="185" y="415"/>
      <point x="247" y="494"/>
      <point x="477" y="494" type="curve" smooth="yes"/>
      <point x="533" y="494"/>
      <point x="600" y="489"/>
      <point x="677" y="479" type="curve"/>
      <point x="677" y="420" type="line" smooth="yes"/>
      <point x="677" y="216"/>
      <point x="552" y="104"/>
    </contour>
    <contour>
      <point x="844" y="619" type="curve"/>
      <point x="866" y="855"/>
      <point x="987" y="980"/>
      <point x="1166" y="980" type="curve" smooth="yes"/>
      <point x="1321" y="980"/>
      <point x="1407" y="905"/>
      <point x="1407" y="800" type="curve" smooth="yes"/>
      <point x="1407" y="661"/>
      <point x="1244" y="619"/>
    </contour>
    <contour>
      <point x="824" y="1084.95" type="move" name="top"/>
    </contour>
  </outline>
</glyph>
<glyph name="eth" format="1">
  <advance width="1142"/>
  <unicode hex="00F0"/>
  <outline>
    <contour>
      <point x="573" y="-20" type="curve" smooth="yes"/>
      <point x="905" y="-20"/>
      <point x="1068" y="203"/>
      <point x="1068" y="492" type="curve" smooth="yes"/>
      <point x="1068" y="630"/>
      <point x="1034" y="771"/>
      <point x="983" y="872" type="curve" smooth="yes"/>
      <point x="917" y="1001"/>
      <point x="818" y="1132"/>
      <point x="626" y="1340" type="curve"/>
      <point x="879" y="1437" type="line"/>
      <point x="831" y="1544" type="line"/>
      <point x="542" y="1432" type="line"/>
      <point x="387" y="1587" type="line"/>
      <point x="202" y="1587" type="line"/>
      <point x="418" y="1382" type="line"/>
      <point x="194" y="1294" type="line"/>
      <point x="241" y="1184" type="line"/>
      <point x="497" y="1285" type="line"/>
      <point x="679" y="1104"/>
      <point x="779" y="970"/>
      <point x="832" y="870" type="curve"/>
      <point x="772" y="916"/>
      <point x="706" y="977"/>
      <point x="558" y="977" type="curve" smooth="yes"/>
      <point x="278" y="977"/>
      <point x="78" y="782"/>
      <point x="78" y="490" type="curve" smooth="yes"/>
      <point x="78" y="222"/>
      <point x="249" y="-20"/>
    </contour>
    <contour>
      <point x="579" y="109" type="curve" smooth="yes"/>
      <point x="348" y="109"/>
      <point x="237" y="295"/>
      <point x="237" y="489" type="curve" smooth="yes"/>
      <point x="237" y="697"/>
      <point x="361" y="854"/>
      <point x="573" y="854" type="curve" smooth="yes"/>
      <point x="797" y="854"/>
      <point x="920" y="681"/>
      <point x="920" y="499" type="curve" smooth="yes"/>
      <point x="920" y="263"/>
      <point x="804" y="109"/>
    </contour>
  </outline>
</glyph>
<glyph name="divide" format="1">
  <advance width="1101"/>
  <unicode hex="00F7"/>
  <outline>
    <contour>
      <point x="459" y="892" type="line"/>
      <point x="652" y="892" type="line"/>
      <point x="652" y="1094" type="line"/>
      <point x="459" y="1094" type="line"/>
    </contour>
    <contour>
      <point x="78" y="507" type="line"/>
      <point x="1029" y="507" type="line"/>
      <point x="1029" y="645" type="line"/>
      <point x="78" y="645" type="line"/>
    </contour>
    <contour>
      <point x="459" y="32" type="line"/>
      <point x="650" y="32" type="line"/>
      <point x="650" y="238" type="line"/>
      <point x="459" y="238" type="line"/>
    </contour>
  </outline>
</glyph>
<glyph name="dotlessi" format="1">
  <advance width="571"/>
  <unicode hex="0131"/>
  <outline>
    <contour>
      <point x="198" y="0" type="line"/>
      <point x="362" y="0" type="line"/>
      <point x="362" y="1082" type="line"/>
      <point x="198" y="1082" type="line"/>
    </contour>
    <contour>
      <point x="286" y="1082" type="move" name="top"/>
    </contour>
  </outline>
</glyph>
<glyph name="uni0237" format="1">
  <advance width="775"/>
  <unicode hex="0237"/>
  <outline>
    <contour>
      <point x="257" y="-455" type="line"/>
      <point x="314" y="-455" type="line" smooth="yes"/>
      <point x="568" y="-455"/>
      <point x="621" y="-370"/>
      <point x="621" y="-112" type="curve" smooth="yes"/>
      <point x="621" y="1111" type="line"/>
      <point x="441" y="1111" type="line"/>
      <point x="441" y="-87" type="line" smooth="yes"/>
      <point x="441" y="-123"/>
      <point x="442" y="-154"/>
      <point x="442" y="-180" type="curve" smooth="yes"/>
      <point x="442" y="-277"/>
      <point x="427" y="-313"/>
      <point x="284" y="-313" type="curve" smooth="yes"/>
      <point x="224" y="-313" type="line"/>
    </contour>
  </outline>
</glyph>
<glyph name="circumflex" format="1">
  <advance width="857"/>
  <unicode hex="02C6"/>
  <outline>
    <contour>
      <point x="224" y="1166" type="line"/>
      <point x="335" y="1166" type="line"/>
      <point x="533" y="1376" type="line"/>
      <point x="727" y="1166" type="line"/>
      <point x="839" y="1166" type="line"/>
      <point x="631" y="1467" type="line"/>
      <point x="444" y="1467" type="line"/>
    </contour>
    <contour>
      <point x="533" y="1004.05" type="move" name="_top"/>
    </contour>
  </outline>
</glyph>
<glyph name="uni0311" format="1">
  <advance width="816"/>
  <unicode hex="0311"/>
  <outline>
    <contour>
      <point x="173" y="1058" type="curve"/>
      <point x="273" y="1058" type="line"/>
      <point x="273" y="1157"/>
      <point x="329" y="1205"/>
      <point x="403" y="1205" type="curve" smooth="yes"/>
      <point x="476" y="1205"/>
      <point x="535" y="1157"/>
      <point x="535" y="1058" type="curve"/>
      <point x="638" y="1058" type="line"/>
      <point x="638" y="1229"/>
      <point x="517" y="1301"/>
      <point x="402" y="1301" type="curve" smooth="yes"/>
      <point x="288" y="1301"/>
      <point x="173" y="1230"/>
    </contour>
    <contour>
      <point x="404" y="945.25" type="move" name="_top"/>
    </contour>
  </outline>
</glyph>
<glyph name="afii10060" format="1">
  <advance width="1673"/>
  <unicode hex="040B"/>
  <outline>
    <contour>
      <point x="1421" y="0" type="line"/>
      <point x="1421" y="413" type="line" smooth="yes"/>
      <point x="1421" y="644"/>
      <point x="1311" y="714"/>
      <point x="1102" y="714" type="curve" smooth="yes"/>
      <point x="794" y="714" type="line"/>
      <point x="794" y="0" type="line"/>
      <point x="672" y="0" type="line"/>
      <point x="672" y="1395" type="line"/>
      <point x="224" y="1395" type="line"/>
      <point x="224" y="1485" type="line"/>
      <point x="1248" y="1485" type="line"/>
      <point x="1248" y="1395" type="line"/>
      <point x="794" y="1395" type="line"/>
      <point x="794" y="811" type="line"/>
      <point x="1100" y="811" type="line" smooth="yes"/>
      <point x="1408" y="811"/>
      <point x="1543" y="674"/>
      <point x="1543" y="414" type="curve" smooth="yes"/>
      <point x="1543" y="0" type="line"/>
    </contour>
  </outline>
</glyph>
<glyph name="afii10038" format="1">
  <advance width="1632"/>
  <unicode hex="0424"/>
  <outline>
    <contour>
      <point x="862" y="262" type="curve"/>
      <point x="862" y="1215" type="line"/>
      <point x="1214" y="1180"/>
      <point x="1368" y="1006"/>
      <point x="1368" y="738" type="curve" smooth="yes"/>
      <point x="1368" y="473"/>
      <point x="1215" y="297"/>
    </contour>
    <contour>
      <point x="729" y="264" type="line"/>
      <point x="395" y="303"/>
      <point x="241" y="474"/>
      <point x="241" y="738" type="curve" smooth="yes"/>
      <point x="241" y="1003"/>
      <point x="394" y="1174"/>
      <point x="729" y="1213" type="curve"/>
    </contour>
    <contour>
      <point x="729" y="0" type="line"/>
      <point x="862" y="0" type="line"/>
      <point x="862" y="120" type="line"/>
      <point x="1283" y="152"/>
      <point x="1531" y="361"/>
      <point x="1531" y="737" type="curve" smooth="yes"/>
      <point x="1531" y="1115"/>
      <point x="1284" y="1326"/>
      <point x="862" y="1357" type="curve"/>
      <point x="862" y="1488" type="line"/>
      <point x="729" y="1488" type="line"/>
      <point x="729" y="1355" type="line"/>
      <point x="303" y="1314"/>
      <point x="78" y="1092"/>
      <point x="78" y="737" type="curve" smooth="yes"/>
      <point x="78" y="384"/>
      <point x="302" y="162"/>
      <point x="729" y="121" type="curve"/>
    </contour>
  </outline>
</glyph>
<glyph name="afii10041" format="1">
  <advance width="1183"/>
  <unicode hex="0427"/>
  <outline>
    <contour>
      <point x="864" y="0" type="line"/>
      <point x="1034" y="0" type="line"/>
      <point x="1034" y="1496" type="line"/>
      <point x="864" y="1496" type="line"/>
      <point x="864" y="643" type="line"/>
      <point x="524" y="643" type="line" smooth="yes"/>
      <point x="355" y="643"/>
      <point x="271" y="691"/>
      <point x="271" y="935" type="curve" smooth="yes"/>
      <point x="271" y="1496" type="line"/>
      <point x="97" y="1496" type="line"/>
      <point x="97" y="897" type="line" smooth="yes"/>
      <point x="97" y="653"/>
      <point x="219" y="489"/>
      <point x="474" y="489" type="curve" smooth="yes"/>
      <point x="864" y="489" type="line"/>
    </contour>
  </outline>
</glyph>
<glyph name="afii10045" format="1">
  <advance width="1632"/>
  <unicode hex="042B"/>
  <outline>
    <contour>
      <point x="135" y="0" type="line"/>
      <point x="135" y="1484" type="line"/>
      <point x="257" y="1484" type="line"/>
      <point x="257" y="840" type="line"/>
      <point x="602" y="840" type="line" smooth="yes"/>
      <point x="996" y="840"/>
      <point x="1080" y="645"/>
      <point x="1080" y="426" type="curve" smooth="yes"/>
      <point x="1080" y="198"/>
      <point x="1005" y="0"/>
      <point x="609" y="0" type="curve" smooth="yes"/>
    </contour>
    <contour>
      <point x="1333" y="0" type="line"/>
      <point x="1333" y="1485" type="line"/>
      <point x="1455" y="1485" type="line"/>
      <point x="1455" y="0" type="line"/>
    </contour>
    <contour>
      <point x="257" y="743" type="line"/>
      <point x="257" y="96" type="line"/>
      <point x="615" y="96" type="line" smooth="yes"/>
      <point x="865" y="96"/>
      <point x="958" y="194"/>
      <point x="958" y="422" type="curve" smooth="yes"/>
      <point x="958" y="655"/>
      <point x="873" y="743"/>
      <point x="601" y="743" type="curve" smooth="yes"/>
    </contour>
  </outline>
</glyph>
<glyph name="afii10046" format="1">
  <advance width="1183"/>
  <unicode hex="042C"/>
  <outline>
    <contour>
      <point x="116" y="0" type="line"/>
      <point x="612" y="0" type="line" smooth="yes"/>
      <point x="976" y="0"/>
      <point x="1099" y="174"/>
      <point x="1099" y="426" type="curve" smooth="yes"/>
      <point x="1099" y="672"/>
      <point x="978" y="844"/>
      <point x="608" y="844" type="curve" smooth="yes"/>
      <point x="292" y="844" type="line"/>
      <point x="292" y="1496" type="line"/>
      <point x="116" y="1496" type="line"/>
    </contour>
    <contour>
      <point x="292" y="707" type="line"/>
      <point x="602" y="707" type="line" smooth="yes"/>
      <point x="840" y="707"/>
      <point x="922" y="630"/>
      <point x="922" y="424" type="curve" smooth="yes"/>
      <point x="922" y="219"/>
      <point x="826" y="137"/>
      <point x="604" y="137" type="curve" smooth="yes"/>
      <point x="292" y="137" type="line"/>
    </contour>
  </outline>
</glyph>
<glyph name="afii10066" format="1">
  <advance width="1101"/>
  <unicode hex="0431"/>
  <outline>
    <contour>
      <point x="556" y="74" type="curve" smooth="yes"/>
      <point x="799" y="74"/>
      <point x="869" y="199"/>
      <point x="869" y="445" type="curve" smooth="yes"/>
      <point x="869" y="613"/>
      <point x="761" y="765"/>
      <point x="602" y="765" type="curve" smooth="yes"/>
      <point x="550" y="765"/>
      <point x="390" y="751"/>
      <point x="243" y="603" type="curve"/>
      <point x="238" y="561"/>
      <point x="235" y="521"/>
      <point x="235" y="485" type="curve" smooth="yes"/>
      <point x="235" y="173"/>
      <point x="422" y="74"/>
    </contour>
    <contour>
      <point x="560" y="-20" type="curve" smooth="yes"/>
      <point x="146" y="-20"/>
      <point x="109" y="366"/>
      <point x="109" y="495" type="curve" smooth="yes"/>
      <point x="109" y="522"/>
      <point x="111" y="535"/>
      <point x="111" y="535" type="curve"/>
      <point x="111" y="939"/>
      <point x="280" y="1205"/>
      <point x="888" y="1241" type="curve"/>
      <point x="885" y="1162" type="line"/>
      <point x="617" y="1145"/>
      <point x="305" y="1105"/>
      <point x="225" y="703" type="curve"/>
      <point x="371" y="774"/>
      <point x="414" y="840"/>
      <point x="602" y="840" type="curve" smooth="yes"/>
      <point x="844" y="840"/>
      <point x="953" y="588"/>
      <point x="953" y="430" type="curve" smooth="yes"/>
      <point x="953" y="198"/>
      <point x="809" y="-20"/>
    </contour>
  </outline>
</glyph>
<glyph name="afii10067" format="1">
  <advance width="1061"/>
  <unicode hex="0432"/>
  <outline>
    <contour>
      <point x="263" y="611" type="line"/>
      <point x="625" y="611" type="line" smooth="yes"/>
      <point x="788" y="611"/>
      <point x="813" y="713"/>
      <point x="813" y="804" type="curve" smooth="yes"/>
      <point x="813" y="914"/>
      <point x="764" y="994"/>
      <point x="586" y="994" type="curve" smooth="yes"/>
      <point x="263" y="994" type="line"/>
    </contour>
    <contour>
      <point x="263" y="87" type="line"/>
      <point x="581" y="87" type="line" smooth="yes"/>
      <point x="815" y="87"/>
      <point x="848" y="188"/>
      <point x="848" y="309" type="curve" smooth="yes"/>
      <point x="848" y="403"/>
      <point x="847" y="519"/>
      <point x="630" y="519" type="curve" smooth="yes"/>
      <point x="263" y="519" type="line"/>
    </contour>
    <contour>
      <point x="141" y="0" type="line"/>
      <point x="141" y="1081" type="line"/>
      <point x="588" y="1081" type="line" smooth="yes"/>
      <point x="862" y="1081"/>
      <point x="932" y="935"/>
      <point x="932" y="809" type="curve" smooth="yes"/>
      <point x="932" y="683"/>
      <point x="868" y="609"/>
      <point x="763" y="576" type="curve"/>
      <point x="928" y="530"/>
      <point x="968" y="400"/>
      <point x="968" y="309" type="curve" smooth="yes"/>
      <point x="968" y="179"/>
      <point x="912" y="0"/>
      <point x="586" y="0" type="curve" smooth="yes"/>
    </contour>
  </outline>
</glyph>
<glyph name="afii10072" format="1">
  <advance width="1346"/>
  <unicode hex="0436"/>
  <outline>
    <contour>
      <point x="-11" y="0" type="line"/>
      <point x="525" y="560" type="line"/>
      <point x="-10" y="1083" type="line"/>
      <point x="92" y="1083" type="line"/>
      <point x="613" y="565" type="line"/>
      <point x="613" y="1083" type="line"/>
      <point x="743" y="1083" type="line"/>
      <point x="743" y="565" type="line"/>
      <point x="1268" y="1083" type="line"/>
      <point x="1372" y="1083" type="line"/>
      <point x="834" y="560" type="line"/>
      <point x="1375" y="0" type="line"/>
      <point x="1257" y="0" type="line"/>
      <point x="743" y="537" type="line"/>
      <point x="743" y="0" type="line"/>
      <point x="613" y="0" type="line"/>
      <point x="613" y="537" type="line"/>
      <point x="102" y="0" type="line"/>
    </contour>
  </outline>
</glyph>
<glyph name="afii10081" format="1">
  <advance width="1142"/>
  <unicode hex="043F"/>
  <outline>
    <contour>
      <point x="154" y="0" type="line"/>
      <point x="154" y="1081" type="line"/>
      <point x="987" y="1081" type="line"/>
      <point x="987" y="0" type="line"/>
      <point x="865" y="0" type="line"/>
      <point x="865" y="987" type="line"/>
      <point x="276" y="987" type="line"/>
      <point x="276" y="0" type="line"/>
    </contour>
  </outline>
</glyph>
<glyph name="afii10089" format="1">
  <advance width="1020"/>
  <unicode hex="0447"/>
  <outline>
    <contour>
      <point x="708" y="0" type="line"/>
      <point x="875" y="0" type="line"/>
      <point x="875" y="1085" type="line"/>
      <point x="708" y="1085" type="line"/>
      <point x="708" y="569" type="line"/>
      <point x="706" y="552"/>
      <point x="557" y="525"/>
      <point x="511" y="525" type="curve" smooth="yes"/>
      <point x="356" y="525"/>
      <point x="284" y="575"/>
      <point x="284" y="828" type="curve" smooth="yes"/>
      <point x="284" y="1085" type="line"/>
      <point x="116" y="1085" type="line"/>
      <point x="116" y="817" type="line" smooth="yes"/>
      <point x="116" y="465"/>
      <point x="265" y="396"/>
      <point x="500" y="395" type="curve" smooth="yes"/>
      <point x="539" y="395"/>
      <point x="692" y="406"/>
      <point x="708" y="422" type="curve"/>
    </contour>
  </outline>
</glyph>
<glyph name="afii10095" format="1">
  <advance width="1061"/>
  <unicode hex="044D"/>
  <outline>
    <contour>
      <point x="426" y="-28" type="curve" smooth="yes"/>
      <point x="288" y="-28"/>
      <point x="158" y="10"/>
      <point x="106" y="68" type="curve"/>
      <point x="137" y="148" type="line"/>
      <point x="246" y="85"/>
      <point x="338" y="66"/>
      <point x="419" y="66" type="curve" smooth="yes"/>
      <point x="663" y="66"/>
      <point x="822" y="250"/>
      <point x="838" y="487" type="curve"/>
      <point x="397" y="487" type="line"/>
      <point x="397" y="590" type="line"/>
      <point x="838" y="590" type="line"/>
      <point x="821" y="834"/>
      <point x="693" y="1023"/>
      <point x="414" y="1023" type="curve" smooth="yes"/>
      <point x="298" y="1023"/>
      <point x="214" y="985"/>
      <point x="134" y="936" type="curve"/>
      <point x="97" y="1013" type="line"/>
      <point x="170" y="1081"/>
      <point x="311" y="1115"/>
      <point x="412" y="1115" type="curve" smooth="yes"/>
      <point x="829" y="1115"/>
      <point x="941" y="791"/>
      <point x="941" y="524" type="curve" smooth="yes"/>
      <point x="941" y="285"/>
      <point x="799" y="-28"/>
    </contour>
  </outline>
</glyph>
<glyph name="afii10099" format="1">
  <advance width="1142"/>
  <unicode hex="0452"/>
  <outline>
    <contour>
      <point x="639" y="-280" type="line"/>
      <point x="628" y="-149" type="line"/>
      <point x="664" y="-149" type="line" smooth="yes"/>
      <point x="841" y="-149"/>
      <point x="863" y="-113"/>
      <point x="863" y="104" type="curve" smooth="yes"/>
      <point x="863" y="371" type="line" smooth="yes"/>
      <point x="863" y="621"/>
      <point x="830" y="749"/>
      <point x="636" y="749" type="curve" smooth="yes"/>
      <point x="459" y="749"/>
      <point x="317" y="607"/>
      <point x="289" y="498" type="curve"/>
      <point x="289" y="7" type="line"/>
      <point x="139" y="7" type="line"/>
      <point x="139" y="1106" type="line"/>
      <point x="46" y="1106" type="line"/>
      <point x="46" y="1209" type="line"/>
      <point x="139" y="1209" type="line"/>
      <point x="139" y="1509" type="line"/>
      <point x="289" y="1509" type="line"/>
      <point x="289" y="1209" type="line"/>
      <point x="706" y="1209" type="line"/>
      <point x="706" y="1106" type="line"/>
      <point x="289" y="1106" type="line"/>
      <point x="289" y="695" type="line"/>
      <point x="380" y="816"/>
      <point x="497" y="888"/>
      <point x="651" y="888" type="curve" smooth="yes"/>
      <point x="901" y="888"/>
      <point x="1015" y="732"/>
      <point x="1015" y="445" type="curve" smooth="yes"/>
      <point x="1015" y="158" type="line" smooth="yes"/>
      <point x="1015" y="-150"/>
      <point x="994" y="-280"/>
      <point x="705" y="-280" type="curve" smooth="yes"/>
    </contour>
  </outline>
</glyph>
<glyph name="quoteleft" format="1">
  <advance width="612"/>
  <unicode hex="2018"/>
  <outline>
    <contour>
      <point x="464" y="1473" type="line"/>
      <point x="349" y="1473" type="line"/>
      <point x="167" y="948" type="line"/>
      <point x="361" y="948" type="line"/>
    </contour>
    <contour>
      <point x="403" y="1544.55" type="move" name="_bot"/>
    </contour>
  </outline>
</glyph>
<glyph name="bullet" format="1">
  <advance width="857"/>
  <unicode hex="2022"/>
  <outline>
    <contour>
      <point x="415" y="413" type="curve" smooth="yes"/>
      <point x="251" y="413"/>
      <point x="103" y="531"/>
      <point x="103" y="740" type="curve" smooth="yes"/>
      <point x="103" y="952"/>
      <point x="255" y="1074"/>
      <point x="420" y="1074" type="curve" smooth="yes"/>
      <point x="584" y="1074"/>
      <point x="733" y="955"/>
      <point x="733" y="745" type="curve" smooth="yes"/>
      <point x="733" y="534"/>
      <point x="580" y="413"/>
    </contour>
  </outline>
</glyph>
<glyph name="integral" format="1">
  <advance width="857"/>
  <unicode hex="222B"/>
  <outline>
    <contour>
      <point x="335" y="-411" type="curve" smooth="yes"/>
      <point x="302" y="-411"/>
      <point x="265" y="-407"/>
      <point x="224" y="-398" type="curve"/>
      <point x="224" y="-303" type="line"/>
      <point x="260" y="-313"/>
      <point x="293" y="-317"/>
      <point x="320" y="-317" type="curve" smooth="yes"/>
      <point x="457" y="-317"/>
      <point x="476" y="-204"/>
      <point x="476" y="-40" type="curve" smooth="yes"/>
      <point x="476" y="1153" type="line" smooth="yes"/>
      <point x="476" y="1394"/>
      <point x="538" y="1517"/>
      <point x="709" y="1517" type="curve" smooth="yes"/>
      <point x="743" y="1517"/>
      <point x="782" y="1512"/>
      <point x="826" y="1502" type="curve"/>
      <point x="826" y="1407" type="line"/>
      <point x="790" y="1418"/>
      <point x="760" y="1423"/>
      <point x="733" y="1423" type="curve" smooth="yes"/>
      <point x="616" y="1423"/>
      <point x="592" y="1322"/>
      <point x="592" y="1162" type="curve" smooth="yes"/>
      <point x="592" y="-32" type="line" smooth="yes"/>
      <point x="592" y="-278"/>
      <point x="516" y="-411"/>
    </contour>
  </outline>
</glyph>
<glyph name="lessequal" format="1">
  <advance width="1061"/>
  <unicode hex="2264"/>
  <outline>
    <contour>
      <point x="46" y="1" type="line"/>
      <point x="987" y="1" type="line"/>
      <point x="987" y="121" type="line"/>
      <point x="46" y="121" type="line"/>
    </contour>
    <contour>
      <point x="958" y="258" type="line"/>
      <point x="958" y="397" type="line"/>
      <point x="259" y="771" type="line"/>
      <point x="958" y="1165" type="line"/>
      <point x="958" y="1306" type="line"/>
      <point x="81" y="811" type="line"/>
      <point x="81" y="729" type="line"/>
    </contour>
  </outline>
</glyph>
<glyph name="uni030F.cap" format="1">
  <advance width="979"/>
  <outline>
    <contour>
      <point x="585" y="1058" type="line"/>
      <point x="480" y="1058" type="line"/>
      <point x="224" y="1409" type="line"/>
      <point x="387" y="1409" type="line"/>
    </contour>
    <contour>
      <point x="788" y="1058" type="line"/>
      <point x="695" y="1058" type="line"/>
      <point x="497" y="1409" type="line"/>
      <point x="655" y="1409" type="line"/>
    </contour>
    <contour>
      <point x="658" y="945.25" type="move" name="_top"/>
    </contour>
  </outline>
</glyph>
